# xmcd
# Track frame offsets:
# 150
# 13762
# 26560
# 40005
# 57225
# 67890
# 84830
# 101707
# 124315
# 136630
#
# Disc length: 2065 seconds
# Revision: 1
# Processed by: cddbd v1.5.2PL0 Copyright (c) Steve Scherf et al.
# Submitted via: VisiTrax 2.10.0.248 - For more info visit www.synapsa.com
#
DISCID=77080f0a
DTITLE=Various Artist - Celebration of Blues - Great Rock A Boogie
DYEAR=1900
DGENRE=
TTITLE0=Tommy Castro - Hard Luck Case
TTITLE1=Luther Allison - You Don't Know
TTITLE2=Lee Rocker's Big Blue - The Hucklebuck
TTITLE3=Downchile Blues Band - Rockin' Little Boogie
TTITLE4=Lil Ed and the Blues Imperials - Out of the House
TTITLE5=Mitch Woods - Shakin' The Shack
TTITLE6=Mike Morgan and the Crawl - Lone Star Boogie
TTITLE7=Rod Piazza - Low Down Dog
TTITLE8=Ronnie Earl and the Broadcassters - Waiting For My Chance
TTITLE9=Coco Montoya - Tumbleweed
EXTD=
EXTT0=
EXTT1=
EXTT2=
EXTT3=
EXTT4=
EXTT5=
EXTT6=
EXTT7=
EXTT8=
EXTT9=
PLAYORDER=
